<svg width="32" height="32" viewBox="0 0 32 32" fill="none" xmlns="http://www.w3.org/2000/svg">
<circle cx="16" cy="16" r="9.5" stroke="black" stroke-width="5"/>
<mask id="path-2-inside-1_2_2" fill="white">
<path d="M16 4C17.8677 4 19.7096 4.43596 21.3792 5.27319C23.0487 6.11042 24.4998 7.3258 25.6169 8.8226C26.734 10.3194 27.4863 12.0563 27.8139 13.895C28.1416 15.7338 28.0355 17.6236 27.5041 19.4141L22.7062 17.9902C23.0159 16.9465 23.0778 15.8448 22.8868 14.7729C22.6958 13.7011 22.2573 12.6886 21.6061 11.816C20.9549 10.9435 20.109 10.235 19.1357 9.74693C18.1625 9.25887 17.0888 9.00473 16 9.00473L16 4Z"/>
</mask>
<path d="M16 4C17.8677 4 19.7096 4.43596 21.3792 5.27319C23.0487 6.11042 24.4998 7.3258 25.6169 8.8226C26.734 10.3194 27.4863 12.0563 27.8139 13.895C28.1416 15.7338 28.0355 17.6236 27.5041 19.4141L22.7062 17.9902C23.0159 16.9465 23.0778 15.8448 22.8868 14.7729C22.6958 13.7011 22.2573 12.6886 21.6061 11.816C20.9549 10.9435 20.109 10.235 19.1357 9.74693C18.1625 9.25887 17.0888 9.00473 16 9.00473L16 4Z" stroke="#BD5252" stroke-width="10" mask="url(#path-2-inside-1_2_2)"/>
<mask id="path-3-inside-2_2_2" fill="white">
<path d="M27.5078 19.4017C27.0199 21.052 26.1829 22.5781 25.0533 23.8764C23.9238 25.1747 22.5283 26.2149 20.9613 26.9263C19.3944 27.6378 17.6928 28.004 15.9719 28C14.2511 27.9959 12.5512 27.6218 10.9876 26.903L13.072 22.369C13.9854 22.7889 14.9784 23.0074 15.9836 23.0098C16.9889 23.0121 17.9829 22.7983 18.8982 22.3826C19.8135 21.967 20.6287 21.3594 21.2885 20.601C21.9483 19.8426 22.4373 18.9511 22.7223 17.9871L27.5078 19.4017Z"/>
</mask>
<path d="M27.5078 19.4017C27.0199 21.052 26.1829 22.5781 25.0533 23.8764C23.9238 25.1747 22.5283 26.2149 20.9613 26.9263C19.3944 27.6378 17.6928 28.004 15.9719 28C14.2511 27.9959 12.5512 27.6218 10.9876 26.903L13.072 22.369C13.9854 22.7889 14.9784 23.0074 15.9836 23.0098C16.9889 23.0121 17.9829 22.7983 18.8982 22.3826C19.8135 21.967 20.6287 21.3594 21.2885 20.601C21.9483 19.8426 22.4373 18.9511 22.7223 17.9871L27.5078 19.4017Z" stroke="#529DBD" stroke-width="10" mask="url(#path-3-inside-2_2_2)"/>
<mask id="path-4-inside-3_2_2" fill="white">
<path d="M11.0173 26.9166C8.5223 25.7778 6.49264 23.8187 5.26634 21.3655C4.04003 18.9123 3.69109 16.113 4.2776 13.4338C4.86412 10.7546 6.3507 8.35715 8.48981 6.64067C10.6289 4.92418 13.2915 3.99225 16.0341 4.00005L16.0199 8.99412C14.4187 8.98956 12.8642 9.53365 11.6154 10.5358C10.3665 11.5379 9.49858 12.9376 9.15616 14.5018C8.81374 16.066 9.01746 17.7003 9.73341 19.1325C10.4494 20.5648 11.6343 21.7086 13.091 22.3734L11.0173 26.9166Z"/>
</mask>
<path d="M11.0173 26.9166C8.5223 25.7778 6.49264 23.8187 5.26634 21.3655C4.04003 18.9123 3.69109 16.113 4.2776 13.4338C4.86412 10.7546 6.3507 8.35715 8.48981 6.64067C10.6289 4.92418 13.2915 3.99225 16.0341 4.00005L16.0199 8.99412C14.4187 8.98956 12.8642 9.53365 11.6154 10.5358C10.3665 11.5379 9.49858 12.9376 9.15616 14.5018C8.81374 16.066 9.01746 17.7003 9.73341 19.1325C10.4494 20.5648 11.6343 21.7086 13.091 22.3734L11.0173 26.9166Z" stroke="#DECE3F" stroke-width="10" mask="url(#path-4-inside-3_2_2)"/>
</svg>
