<svg width="32" height="32" viewBox="0 0 32 32" fill="none" xmlns="http://www.w3.org/2000/svg">
<circle cx="16" cy="16" r="13" fill="white"/>
<circle cx="16" cy="16" r="11" stroke="black" stroke-width="2"/>
<mask id="path-3-inside-1_2_2" fill="white">
<path d="M16 4C17.8677 4 19.7096 4.43596 21.3792 5.27319C23.0487 6.11042 24.4998 7.3258 25.6169 8.8226C26.734 10.3194 27.4863 12.0563 27.8139 13.895C28.1416 15.7338 28.0355 17.6236 27.5041 19.4141L25.5848 18.8445C26.0275 17.3527 26.1159 15.7782 25.843 14.2462C25.57 12.7142 24.9432 11.2671 24.0125 10.02C23.0817 8.77297 21.8727 7.76036 20.4817 7.06281C19.0907 6.36526 17.5561 6.00203 16 6.00203L16 4Z"/>
</mask>
<path d="M16 4C17.8677 4 19.7096 4.43596 21.3792 5.27319C23.0487 6.11042 24.4998 7.3258 25.6169 8.8226C26.734 10.3194 27.4863 12.0563 27.8139 13.895C28.1416 15.7338 28.0355 17.6236 27.5041 19.4141L25.5848 18.8445C26.0275 17.3527 26.1159 15.7782 25.843 14.2462C25.57 12.7142 24.9432 11.2671 24.0125 10.02C23.0817 8.77297 21.8727 7.76036 20.4817 7.06281C19.0907 6.36526 17.5561 6.00203 16 6.00203L16 4Z" stroke="#BD5252" stroke-width="4" mask="url(#path-3-inside-1_2_2)"/>
<mask id="path-4-inside-2_2_2" fill="white">
<path d="M27.5078 19.4017C27.0199 21.052 26.1829 22.5781 25.0533 23.8764C23.9238 25.1747 22.5283 26.2149 20.9613 26.9263C19.3944 27.6378 17.6928 28.004 15.9719 28C14.2511 27.9959 12.5512 27.6218 10.9876 26.903L11.8239 25.084C13.1266 25.6829 14.5428 25.9946 15.9766 25.9979C17.4104 26.0013 18.8281 25.6962 20.1336 25.1034C21.4391 24.5107 22.6018 23.644 23.5429 22.5623C24.484 21.4806 25.1814 20.2091 25.5878 18.8342L27.5078 19.4017Z"/>
</mask>
<path d="M27.5078 19.4017C27.0199 21.052 26.1829 22.5781 25.0533 23.8764C23.9238 25.1747 22.5283 26.2149 20.9613 26.9263C19.3944 27.6378 17.6928 28.004 15.9719 28C14.2511 27.9959 12.5512 27.6218 10.9876 26.903L11.8239 25.084C13.1266 25.6829 14.5428 25.9946 15.9766 25.9979C17.4104 26.0013 18.8281 25.6962 20.1336 25.1034C21.4391 24.5107 22.6018 23.644 23.5429 22.5623C24.484 21.4806 25.1814 20.2091 25.5878 18.8342L27.5078 19.4017Z" stroke="#529DBD" stroke-width="4" mask="url(#path-4-inside-2_2_2)"/>
<mask id="path-5-inside-3_2_2" fill="white">
<path d="M11.0173 26.9166C8.52835 25.7806 6.50231 23.8281 5.27502 21.3828C4.04774 18.9375 3.69292 16.1463 4.26937 13.4717C4.84581 10.7971 6.31892 8.39985 8.44451 6.6772C10.5701 4.95456 13.2205 4.00999 15.9565 4.00008L15.9638 6.0021C13.6843 6.01036 11.476 6.79733 9.70504 8.23258C7.93407 9.66783 6.70673 11.6652 6.22646 13.8935C5.74618 16.1219 6.04181 18.4475 7.06433 20.4848C8.08686 22.5221 9.77489 24.1488 11.8486 25.0954L11.0173 26.9166Z"/>
</mask>
<path d="M11.0173 26.9166C8.52835 25.7806 6.50231 23.8281 5.27502 21.3828C4.04774 18.9375 3.69292 16.1463 4.26937 13.4717C4.84581 10.7971 6.31892 8.39985 8.44451 6.6772C10.5701 4.95456 13.2205 4.00999 15.9565 4.00008L15.9638 6.0021C13.6843 6.01036 11.476 6.79733 9.70504 8.23258C7.93407 9.66783 6.70673 11.6652 6.22646 13.8935C5.74618 16.1219 6.04181 18.4475 7.06433 20.4848C8.08686 22.5221 9.77489 24.1488 11.8486 25.0954L11.0173 26.9166Z" stroke="#DECE3F" stroke-width="4" mask="url(#path-5-inside-3_2_2)"/>
</svg>
